<?xml version="1.0" standalone="no"?>
<!DOCTYPE svg PUBLIC "-//W3C//DTD SVG 1.1//EN" "http://www.w3.org/Graphics/SVG/1.1/DTD/svg11.dtd" >
<!--
2013-9-30: Created.
-->
<svg>
<metadata>
Created by iconfont
</metadata>
<defs>

<font id="iconfont" horiz-adv-x="1024" >
  <font-face
    font-family="iconfont"
    font-weight="500"
    font-stretch="normal"
    units-per-em="1024"
    ascent="896"
    descent="-128"
  />
    <missing-glyph />
    
    <glyph glyph-name="location" unicode="&#42549;" d="M474.129 830.071c-153.213-16.689-277.43-138.728-296.656-291.644-9.901-78.748 7.502-152.922 43.861-214.584 71.595-150.11 214.528-316.671 269.5-377.995 11.882-13.255 32.546-13.347 44.428-0.092 57.923 64.616 213.866 246.527 280.641 402.671 21.381 44.289 33.37 93.963 33.37 146.439-0.001 198.748-171.909 357.343-375.144 335.205z m67.511-504.399c-117.27-14.78-215.888 83.842-201.106 201.11 10.072 79.901 74.595 144.422 154.497 154.491 117.266 14.777 215.881-83.839 201.103-201.106-10.07-79.902-74.592-144.425-154.494-154.495z"  horiz-adv-x="1024" />

    
    <glyph glyph-name="liujidiangong" unicode="&#42548;" d="M866.9 62.5v-26.3c0-54.4-142.6-101-142.6-101l-59.4 7.6s-95 11.9-154.5 11.9c-59.4 0-154.5-11.9-154.5-11.9l-59-7.4s-143 46.6-143 100.8v26.3c0 50.6 65.9 101.6 143.2 140.7 3.7 1.9 50.2-261 50.2-261l20.5 0.5S328.1 214.10000000000002 332.2 216c21.4 9.8 35.5 19 56.5 26.5 7.8 2.8 45.1 23.1 24.2 77.7-48.3 49.3-81.3 97-81.3 204.6h358.6c0-106.5-33.8-154.7-81.8-204h0.3c-20.4-61.9 12.2-76.6 17.4-78.3 20.8-6.9 41.5-17.6 62.4-26.5 5.2-2.2-35.6-273.3-35.6-273.3l21.7 0.6s44.3 262 48.8 259.8c78.6-38.3 143.5-89 143.5-140.6z m-152 575.8c0 123.7-168.5 185.5-168.5 185.5-23.9 10.7-47.5 8.3-71.9 0 0 0-168.5-54.3-168.5-185.5 0-19.6-35.6-15.4-47.4-77.5h503.7c-21.4 62.5-47.4 57.9-47.4 77.5z m0 0"  horiz-adv-x="1024" />

    
    <glyph glyph-name="qiangdan" unicode="&#42547;" d="M431.0915075 364.79824874999997H166.40131344a19.19992687 19.19992687 0 0 1 0-38.39985375h614.39766469a19.19992687 19.19992687 0 0 1 0 38.39985375H559.50061906c18.56632969 13.63194844 31.54548 23.23191187 38.89905282 28.79989031 58.75177689 44.37103125 115.96755937 88.28126437 134.39948906 110.11158188 16.62713719 19.699125 29.79828656 37.4014575 39.51345 53.08779844H838.39875969a76.79970844 76.79970844 0 0 0 76.79970843-76.79970844v-499.1981025a76.79970844 76.79970844 0 0 0-76.79970843-76.79970844H108.80153187a76.79970844 76.79970844 0 0 0-76.7997075 76.79970844V479.99781094a76.79970844 76.79970844 0 0 0 76.7997075 76.79970844h409.4576447A1206.86901375 1206.86901375 0 0 0 473.60014625 508.79770219c-38.39985375-38.39985375-39.26385094-53.1837975-47.99981813-105.59959876a64.18535625 64.18535625 0 0 1 5.49117938-38.39985468z m63.22536 0h-6.58557563a28.03189312 28.03189312 0 0 0-24.72950531 25.36310344l-0.61439812 6.66237469a95.99963531 95.99963531 0 0 0 27.55189499 76.53090937c44.33263125 44.52463125 68.92773844 75.26371406 73.8621197 92.21724937 5.7983775 20.02552406 16.70393625 58.13737875-9.59996344 71.17413-30.20148562 14.95674281-60.90216844 1.09439625-92.12125032-41.5486425h-160.66498875a134.39948906 134.39948906 0 0 0 20.98552032 84.19168032c46.59822281 72.23012531 82.27168781 125.95152094 107.00119312 161.12578781 44.06383219 62.70696188 330.02754563-18.95032781 399.39688219-28.43509219 46.25262469-6.33597562 100.6460175-8.21756906 163.19937938-5.68317844v-183.93530063H769.77822031a19.19992687 19.19992687 0 0 1-18.08633156-12.76795124c-13.8239475-38.82225281-38.03505562-72.49892437-72.69092344-101.01081656a21676.9096275 21676.9096275 0 0 0-170.36095218-137.85547594 27.99349406 27.99349406 0 0 0-14.32314563-6.0287775zM166.40131344 249.59868656000003a19.19992687 19.19992687 0 0 1 0-38.39985375h614.39766469a19.19992687 19.19992687 0 0 1 0 38.39985375H166.40131344z m0-115.19956218a19.19992687 19.19992687 0 0 1 0-38.39985375h422.398395a19.19992687 19.19992687 0 0 1 0 38.39985375H166.40131344z"  horiz-adv-x="1024" />

    
    <glyph glyph-name="yunwei" unicode="&#42546;" d="M590.875 208.93899999999996a191.988 191.988 0 0 0-252.144 257.904L442.468 363.03999999999996a63.996 63.996 0 1 1 90.49 90.49L429.222 557.3340000000001A191.988 191.988 0 0 0 687.125 305.19000000000005L989.122 29.110000000000014A86.523 86.523 0 1 0 866.89-93.12199999999996l-276.015 302.06z m68.668-179.509c-16.64-6.911-33.918-12.735-51.581-17.279v-127.288a12.8 12.8 0 0 0-12.8-12.799H428.774a12.8 12.8 0 0 0-12.799 12.8V12.149999999999977a381.672 381.672 0 0 0-99.066 41.086l-90.042-90.043a12.8 12.8 0 0 0-18.111 0L91.13 80.82000000000005a12.8 12.8 0 0 0 0 18.11l90.043 90.043a381.672 381.672 0 0 0-41.086 99.066H12.8A12.8 12.8 0 0 0 0 300.83799999999997V467.226c0 7.04 5.76 12.799 12.8 12.799h127.287c9.088 35.198 23.039 68.476 41.086 99.066L91.13 669.134a12.8 12.8 0 0 0 0 18.111L208.755 804.87a12.8 12.8 0 0 0 18.11 0l90.043-89.979c30.59 18.047 63.804 31.998 99.066 41.086V883.2c0 7.04 5.76 12.799 12.8 12.799h166.389c7.04 0 12.799-5.76 12.799-12.8v-127.287c35.198-9.088 68.476-23.039 99.066-41.086L797.07 804.87a12.8 12.8 0 0 0 18.111 0l117.625-117.625a12.8 12.8 0 0 0 0-18.11l-89.979-90.043c18.047-30.59 31.998-63.804 41.086-99.066h127.224c7.04 0 12.799-5.76 12.799-12.8v-166.389a12.8 12.8 0 0 0-12.8-12.799H883.85a381.032 381.032 0 0 0-25.79-70.14 12.8 12.8 0 0 0-20.031-3.967l-13.504 12.159-51.068 45.693-16.191 14.527a12.8 12.8 0 0 0-3.584 13.695 256.368 256.368 0 0 1-241.713 340.011 255.984 255.984 0 1 1 84.027-497.76 12.8 12.8 0 0 0 13.695-3.52l14.399-16.064 47.037-52.476 10.88-12.16a12.8 12.8 0 0 0-3.904-20.094 377.704 377.704 0 0 0-18.56-8.512z"  horiz-adv-x="1024" />

    
    <glyph glyph-name="nengxiaoshitu" unicode="&#42545;" d="M511.659-59.759000000000015l-382.59 222.325-1.364 441.922 382.59-222.325zM511.659-127.95600000000002a64.106 64.106 0 0 0-34.78 9.547L94.97 103.23400000000004a68.198 68.198 0 0 0-34.099 59.332l-1.364 441.888a68.198 68.198 0 0 0 102.297 59.332l382.59-222.325a68.198 68.198 0 0 0 34.099-58.65v-442.604a68.198 68.198 0 0 0-68.198-68.197h1.364zM195.903 201.43899999999996l245.512-142.533V343.28999999999996L195.903 485.824V201.44000000000005zM510.295 313.932c-12.276 0-24.244 3.341-34.78 9.547L93.605 545.804a68.198 68.198 0 0 0 0 117.982L478.242 886.111a68.198 68.198 0 0 0 68.198 0l381.908-221.643a68.198 68.198 0 0 0 34.099-59.332 68.198 68.198 0 0 0-34.1-58.65L544.395 323.48a68.198 68.198 0 0 0-34.099-9.547zM264.101 604.454L510.295 461.24l248.24 143.215L512.341 747.67l-248.24-143.216zM511.659-127.99000000000001a68.198 68.198 0 0 0-34.099 8.9 68.198 68.198 0 0 0-34.099 59.331V382.163a68.198 68.198 0 0 0 34.1 59.333L862.195 663.8199999999999a68.198 68.198 0 0 0 102.297-59.332v-441.922a68.198 68.198 0 0 0-34.1-59.332L545.759-119.09000000000003a68.198 68.198 0 0 0-34.099-8.865z m68.198 471.247V58.190000000000055l248.922 143.215V486.472L579.857 343.25699999999995z"  horiz-adv-x="1024" />

    
    <glyph glyph-name="zhandianzonglan" unicode="&#42544;" d="M1022.82801 459.704c0-7.68 2.633-15.36 0-20.48a41.691 41.691 0 0 0-20.48-41.106L814.66301 290.30499999999995a39.497 39.497 0 0 0-41.106 0l-17.993 10.24a41.033 41.033 0 0 0 0 71.9l203.044 118.052c28.233 15.36 59.1 0 64.22-30.72z m-84.846-189.879c33.5 17.92 74.606-15.36 61.732-51.346-5.12-12.873-12.873-28.233-17.993-41.106 0-2.56-2.56-2.56-2.56-5.12l-2.56 2.56-38.546 23.113a41.033 41.033 0 0 0 0 71.9zM586.01901 398.118a44.178 44.178 0 0 0-20.553 35.913v12.873a40.96 40.96 0 0 0 20.553 35.84l311.003 179.711a42.642 42.642 0 0 0 56.54-15.36c2.56-5.12 7.68-12.873 10.24-17.993 12.872-20.48 5.12-46.226-15.36-56.466l-313.71-179.638a39.497 39.497 0 0 0-41.106 0l-7.753 5.12z m43.667 202.751a41.838 41.838 0 0 0-64.22 35.913v20.48a40.96 40.96 0 0 0 20.553 35.986L771.07001 801.061c15.36 7.68 33.427 7.68 46.227-2.56 5.12-2.56 12.873-7.753 17.993-12.873a42.057 42.057 0 0 0-5.12-69.266L629.75901 600.796z m0 207.872c-28.234-15.36-64.22 5.12-64.22 35.913V896h7.68l46.3-7.68c38.546-7.753 46.226-59.026 10.24-79.58zM100.27901 82.43399999999997l413.695 238.664 413.768-238.664a508.854 508.854 0 0 0-413.768-210.432 508.854 508.854 0 0 0-413.769 210.432zM462.62801 896v-485.082L46.22601 172.25300000000004A527.359 527.359 0 0 0 0.00001 385.318 513.096 513.096 0 0 0 462.62801 896z"  horiz-adv-x="1024" />

    
    <glyph glyph-name="shebeijiance" unicode="&#42543;" d="M1044.48-76.79999999999995H491.52c-16.896 0-30.72 13.824-30.72 30.72s13.824 30.72 30.72 30.72h552.96c16.896 0 30.72-13.824 30.72-30.72s-13.824-30.72-30.72-30.72z m155.648 921.6H335.872c-33.792 0-61.44-27.648-61.44-61.44v-645.12c0-33.792 27.648-61.44 61.44-61.44h864.768c33.792 0 61.44 27.648 61.44 61.44V783.36c-0.512 33.792-27.648 61.44-61.952 61.44zM591.872 432.64l-49.152-49.152c16.384-29.184 12.288-67.072-12.288-92.16-30.208-30.208-78.848-30.208-108.544 0-30.208 30.208-30.208 78.848 0 108.544 25.088 25.088 62.976 29.184 92.16 12.288l49.152 49.152c8.192 8.192 20.992 8.192 29.184 0 7.68-7.68 7.68-20.992-0.512-28.672z m184.32-18.432c-8.192-8.192-20.992-8.192-29.184 0l-56.832 56.832c-25.088-12.8-56.32-8.704-77.312 12.288-26.112 26.112-26.112 68.096 0 94.208 26.112 26.112 68.096 26.112 94.208 0 20.992-20.992 25.088-52.224 12.288-77.312l56.832-56.832c8.192-8.192 8.192-21.504 0-29.184z m189.44 23.552L908.8 380.928c12.8-25.088 8.704-56.32-12.288-77.312-26.112-26.112-68.096-26.112-94.208 0-26.112 26.112-26.112 68.096 0 94.208 20.992 20.992 52.224 25.088 77.312 12.288l57.344 56.32c8.192 8.192 20.992 8.192 29.184 0 7.68-7.68 7.68-20.992-0.512-28.672z m78.848 30.72c-50.688 0-92.16 41.472-92.16 92.16s41.472 92.16 92.16 92.16 92.16-41.472 92.16-92.16-41.472-92.16-92.16-92.16z"  horiz-adv-x="1536" />

    
    <glyph glyph-name="anquanpingce" unicode="&#42542;" d="M844.993 721.967c-7.93-0.287-15.687-0.39-23.31-0.39-200.507 0-288.849 88.957-289.596 89.786l-19.985 21.192-20.149-21.213c-0.787-0.931-87.39-89.785-289.595-89.785-7.623 0-15.35 0.103-23.392 0.39l-28.141 0.93v-403.376c0-105.625 36.42-259.684 351.3-377.6l9.844-3.673 9.844 3.674c314.881 117.885 351.3 271.923 351.3 377.6V722.887l-28.14-0.911M481.055 215.15499999999997l-181.432 165.58 48.188 40.176 96.477-73.29S577.451 489.555 706.1 555.8240000000001l18.42-21.285S563.697 397.313 481.055 215.15499999999997m0 0"  horiz-adv-x="1024" />

    
    <glyph glyph-name="huamian" unicode="&#42541;" d="M64.933 768.776v-769.1h894.8v769.1h-894.8z m649.6-177.101c39.267 0 71.099-31.832 71.099-71.099s-31.832-71.099-71.099-71.099-71.099 31.832-71.099 71.099 31.832 71.099 71.099 71.099z m140.8-487.599h-685.9v213.6l146.8 200.3 252.2-315.2 196.3 130 90.6-91.4v-137.3z"  horiz-adv-x="1024" />

    
    <glyph glyph-name="tingdianweihu" unicode="&#42540;" d="M779.156-61.259000000000015H244.844c-98.402 0-178.103 79.701-178.103 178.103V651.156c0 98.402 79.701 178.103 178.103 178.103h534.312c98.402 0 178.103-79.701 178.103-178.103v-534.312c0-98.402-79.701-178.103-178.103-178.103z m4.452 237.768L271.56 688.557c-11.577 11.577-30.278 11.577-41.854 0s-11.577-30.277 0-41.854l512.048-512.048c5.788-5.789 13.358-8.905 20.927-8.905s15.14 3.117 20.928 8.905c11.576 11.577 11.576 30.278-0.001 41.854z m-403.85 280.514c-3.562 3.562-8.905 4.898-13.803 4.007-4.898-0.89-8.905-4.452-10.687-9.35l-45.416-124.228c-1.78-4.452-0.445-9.796 2.227-13.803 2.672-4.008 8.46-7.125 12.912-7.125v-2.671h130.906L395.342 118.17999999999995c-2.227-6.68 0.445-12.912 6.68-16.474 2.226-1.336 4.897-1.336 7.569-1.336 4.007 0 8.014 1.78 11.131 4.898L560.088 257.99c5.343 5.789 5.343 15.139-0.445 20.482l-179.885 178.55zM639.79 356.84000000000003c2.672-3.117 6.68-5.342 10.687-4.452 4.007 0 8.014 1.78 10.686 4.452l71.687 73.914c4.007 4.452 5.343 10.241 3.117 16.029-2.227 5.343-7.57 8.905-13.803 8.905H614.855l124.227 215.505c2.672 4.452 2.672 9.35 0 13.803-2.672 4.453-7.57 6.68-12.912 6.68H446.546c-6.679 0-12.467-3.118-14.248-9.35L409.59 606.63c-1.336-5.342 0-10.686 3.562-14.248l226.637-235.543z"  horiz-adv-x="1024" />

    
    <glyph glyph-name="shebeidangan" unicode="&#42539;" d="M857.156 631.823c0 49.638-49.273 49.638-49.273 49.638H216.117s-49.273 0-49.273-49.638v-49.637h690.312v49.637zM709.215 780.614h-394.43s-49.273 0-49.273-49.637H758.61c-0.122 49.637-49.517 49.637-49.395 49.637z m246.488-198.428l-29.127 29.37v-79.008H97.303v79.008l-29.127-29.37c-29.127-29.37-50.123-37.259-38.351-99.275 11.65-61.774 68.327-400.62 76.58-446.373 9.224-50.244 60.317-49.638 60.317-49.638h690.313s50.972-0.728 60.317 49.638c8.374 45.875 64.93 384.6 76.702 446.373 11.772 62.016-9.103 69.905-38.351 99.275zM709.215 314.33799999999997s0-49.638-49.395-49.638H364.06c-49.274 0-49.274 49.638-49.274 49.638V413.49h69.056v-79.371h256.318V413.49h69.177l-0.121-99.153z"  horiz-adv-x="1024" />

    
    <glyph glyph-name="lishibaobiao" unicode="&#42538;" d="M967.225 681.529v-595.285c0-24.008-8.647-44.601-25.714-61.782-17.18-17.18-37.774-25.714-61.781-25.714H144.498c-24.007 0-44.601 8.534-61.782 25.714s-25.713 37.774-25.713 61.782V681.529c0 24.007 8.533 44.6 25.713 61.781 17.18 17.18 37.775 25.714 61.782 25.714h735.346c24.007 0 44.6-8.647 61.78-25.714 16.954-16.953 25.6-37.546 25.6-61.781zM336.896 506.652V611.6700000000001c0 5.12-1.593 9.33-4.892 12.516-3.3 3.3-7.51 4.892-12.516 4.892H144.384c-5.12 0-9.33-1.593-12.516-4.892-3.3-3.3-4.892-7.51-4.892-12.516v-105.017c0-5.12 1.593-9.33 4.892-12.515 3.3-3.3 7.51-4.893 12.516-4.893h175.104c5.12 0 9.33 1.593 12.516 4.893 3.3 3.186 4.892 7.395 4.892 12.515z m0-210.26V401.407c0 5.12-1.593 9.33-4.892 12.516-3.3 3.3-7.51 4.892-12.516 4.892H144.384c-5.12 0-9.33-1.593-12.516-4.892-3.3-3.3-4.892-7.51-4.892-12.516v-105.017c0-5.12 1.593-9.33 4.892-12.515 3.3-3.3 7.51-4.893 12.516-4.893h175.104c5.12 0 9.33 1.593 12.516 4.893 3.3 3.185 4.892 7.509 4.892 12.515z m0-210.035V191.37400000000002c0 5.12-1.593 9.33-4.892 12.516-3.3 3.3-7.51 4.892-12.516 4.892H144.384c-5.12 0-9.33-1.593-12.516-4.892-3.3-3.3-4.892-7.51-4.892-12.516v-105.017c0-5.12 1.593-9.33 4.892-12.515 3.3-3.3 7.51-4.893 12.516-4.893h175.104c5.12 0 9.33 1.593 12.516 4.893 3.3 3.3 4.892 7.395 4.892 12.515z m280.12 420.295V611.6700000000001c0 5.12-1.592 9.33-4.892 12.516-3.3 3.3-7.509 4.892-12.515 4.892H424.39c-5.12 0-9.33-1.593-12.515-4.892-3.3-3.3-4.893-7.51-4.893-12.516v-105.017c0-5.12 1.593-9.33 4.893-12.515 3.3-3.3 7.509-4.893 12.515-4.893H599.61c5.12 0 9.33 1.593 12.515 4.893 3.3 3.186 4.893 7.395 4.893 12.515z m0-210.26V401.407c0 5.12-1.592 9.33-4.892 12.516-3.3 3.3-7.509 4.892-12.515 4.892H424.39c-5.12 0-9.33-1.593-12.515-4.892-3.3-3.3-4.893-7.51-4.893-12.516v-105.017c0-5.12 1.593-9.33 4.893-12.515 3.3-3.3 7.509-4.893 12.515-4.893H599.61c5.12 0 9.33 1.593 12.515 4.893 3.3 3.185 4.893 7.509 4.893 12.515z m0-210.035V191.37400000000002c0 5.12-1.592 9.33-4.892 12.516-3.3 3.3-7.509 4.892-12.515 4.892H424.39c-5.12 0-9.33-1.593-12.515-4.892-3.3-3.3-4.893-7.51-4.893-12.516v-105.017c0-5.12 1.593-9.33 4.893-12.515 3.3-3.3 7.509-4.893 12.515-4.893H599.61c5.12 0 9.33 1.593 12.515 4.893 3.3 3.3 4.893 7.395 4.893 12.515z m280.122 420.295V611.6700000000001c0 5.12-1.593 9.33-4.893 12.516-3.3 3.3-7.509 4.892-12.515 4.892H704.626c-5.12 0-9.33-1.593-12.516-4.892-3.3-3.3-4.892-7.51-4.892-12.516v-105.017c0-5.12 1.593-9.33 4.892-12.515 3.3-3.3 7.51-4.893 12.516-4.893H879.73c5.12 0 9.33 1.593 12.515 4.893 3.3 3.186 4.893 7.395 4.893 12.515z m0-210.26V401.407c0 5.12-1.593 9.33-4.893 12.516-3.3 3.3-7.509 4.892-12.515 4.892H704.626c-5.12 0-9.33-1.593-12.516-4.892-3.3-3.3-4.892-7.51-4.892-12.516v-105.017c0-5.12 1.593-9.33 4.892-12.515 3.3-3.186 7.51-4.893 12.516-4.893H879.73c5.12 0 9.33 1.593 12.515 4.893s4.893 7.509 4.893 12.515z m0-210.035V191.37400000000002c0 5.12-1.593 9.33-4.893 12.516-3.3 3.3-7.509 4.892-12.515 4.892H704.626c-5.12 0-9.33-1.593-12.516-4.892-3.3-3.3-4.892-7.51-4.892-12.516v-105.017c0-5.12 1.593-9.33 4.892-12.515 3.3-3.3 7.51-4.893 12.516-4.893H879.73c5.12 0 9.33 1.593 12.515 4.893 3.3 3.3 4.893 7.395 4.893 12.515z"  horiz-adv-x="1024" />

    
    <glyph glyph-name="yongnengtongji" unicode="&#42537;" d="M927.995 791.39625c32.01 0 64.005-24.219375 64.005-64.539375v-532.44375c0-32.255625-31.995-64.5253125-64.005-64.5253125h-384v-32.26875l168-145.2215625c16.005-8.0634375 16.005-24.1921875 8.01-40.32-8.01-8.0775-16.005-8.0775-24-8.0775-8.01 0-8.01 8.064375-16.005 8.064375L536 16.936874999999986l-16.005 16.141875c-7.995 8.064375-15.99 8.064375-24 0l-15.99-16.141875-144-104.8725C320-96 303.995-96 296-79.8721875c-7.995 16.141875-7.995 32.2696875 7.995 40.3471875l176.01 137.143125v32.2565625h-384C63.995 129.87468750000005 32 162.15750000000003 32 194.4140625v532.44375c0 40.333125 31.995 64.5384375 64.005 64.5384375h384V831.73125C480.005 847.8721875 495.995 864 512 864s31.995-16.1278125 31.995-32.2696875v-40.3340625h384z m-125.71875-180.3009375L596.8915625 417.8878125l-213.256875 174.815625c-7.899375 9.189375-23.6990625 0-31.5984375-9.2015625L178.27625 399.48375c-7.9125-9.1884375-15.811875-36.7959375 0-45.9984375 7.88625-9.2015625 31.584375-18.4040625 39.48375 0l157.9884375 165.6140625L589.00625 353.48531249999996c7.899375 0 7.899375-9.2015625 15.7996875-9.2015625s15.79875 0 15.79875 9.1875L841.775 555.8953125c15.79875 9.1875 15.79875 27.6065625 7.899375 45.9975-15.79875 18.4040625-31.5984375 18.4040625-47.3971875 9.2025z"  horiz-adv-x="1024" />

    
    <glyph glyph-name="xingzhuang9" unicode="&#42536;" d="M896.88105459 2.2299518500000204l-94.54746357 96.64101299a211.44864727 211.44864727 0 0 1 34.03708681 115.28037071 204.6727459 204.6727459 0 1 1-204.62772304-209.3550961 200.35057588 200.35057588 0 0 1 112.71408222 34.8024709l94.54746357-96.64101387a29.84998447 29.84998447 0 0 1 42.7714708 0l15.10508321 15.46526426a31.51582119 31.51582119 0 0 1 0 43.73945684z m-154.58510215 158.09686436a124.05977842 124.05977842 0 0 0-57.876554-59.18220967 119.30989394 119.30989394 0 0 0-52.63142081-12.56130615 125.59054658 125.59054658 0 1 0 122.77663419 125.56803516 126.67108887 126.67108887 0 0 0-12.26865938-53.82451934z m-377.46948955 14.63234502H264.74122021a31.89851279 31.89851279 0 0 0 0 63.77451504h98.39689541a277.81196133 277.81196133 0 0 0 21.16062247 85.04769375H264.74122021a31.89851279 31.89851279 0 0 0 0 63.77451504h157.57910421a269.10008789 269.10008789 0 0 0 117.28387704 85.04769375H264.74122021a31.89851279 31.89851279 0 0 0 0 63.77451504H744.74968467a31.89851279 31.89851279 0 0 0 0-63.77451504h-23.50179844a272.90449776 272.90449776 0 0 0 169.98283125-193.43960683V737.3589861400001A95.85311836 95.85311836 0 0 1 796.68325479 834H212.80764922A95.85311836 95.85311836 0 0 1 118.26018653 737.3589861400001v-689.97136554a95.85311836 95.85311836 0 0 1 94.54746269-96.64101386h342.50943955a272.88198633 272.88198633 0 0 0-190.44560302 224.19004307zM264.74122021 685.17779122H744.74968467a31.89851279 31.89851279 0 0 0 0-63.77451505H264.71870879a31.89851279 31.89851279 0 0 0 0 63.77451505z m0 0"  horiz-adv-x="1024" />

    
    <glyph glyph-name="xingzhuang4" unicode="&#42535;" d="M897.09233398 754.63801934a78.69777451 78.69777451 0 0 1-22.8401376 56.00761787A75.69813076 75.69813076 0 0 1 819.59441768 833.91429609H204.41051036A78.99773818 78.99773818 0 0 1 126.44122168 754.01666426v-749.28936973a32.28901348 32.28901348 0 0 1 3.57814512-14.69825068 77.96928955 77.96928955 0 0 1 74.39114356-56.00761788h615.18390732a78.39780996 78.39780996 0 0 1 77.51934229 72.54850606 30.89632148 30.89632148 0 0 1 0.44994638 6.42780615zM244.28433536 698.1590291h365.61361727a29.39650049 29.39650049 0 0 0 0-58.77157499H244.28433536a29.24651865 29.24651865 0 0 0-28.66801554 29.39650048A28.66801552 28.66801552 0 0 0 244.28433536 698.18045508z m306.92774618-154.73872178a29.99642871 29.99642871 0 0 0-29.56790829-30.29639326H251.01210605a30.31781924 30.31781924 0 0 0 1e-8 60.6142125h270.61064121a30.21068935 30.21068935 0 0 0 29.5679083-30.29639326zM245.63417451 448.24592344h195.36245684a30.31781924 30.31781924 0 0 0 0-60.6142125H245.63417451a29.99642871 29.99642871 0 0 0-29.56790829 30.31781924 29.35364854 29.35364854 0 0 0 29.56790829 30.29639326z m138.90489258-187.79907217h-128.5561248a32.61040312 32.61040312 0 0 0 0 65.19938115h128.5561248a32.61040312 32.61040312 0 0 0 0-65.19938115z m361.58552491 57.85025625l-213.72455655-219.01678418a10.09165606 10.09165606 0 0 0-5.37793066-2.76395625l-71.69146524-23.41864072a12.29853604 12.29853604 0 0 0-15.23390098 15.59814345l22.8401376 73.46982481a13.92691377 13.92691377 0 0 0 2.6996792 5.05654102l213.72455654 219.03820927a11.46292119 11.46292119 0 0 0 17.03368653 0l49.72979356-50.05118408a13.60552324 13.60552324 0 0 0 0-17.91215332z m49.27984803 50.97250284l-10.30591581-10.56302755a11.97714551 11.97714551 0 0 0-17.48363291 0l-49.27984805 50.50113047a12.6842045 12.6842045 0 0 0 0 17.91215333l19.28341846 19.28341845a22.62587783 22.62587783 0 0 0 33.1460543 0l24.63992401-25.26127822a37.51696231 37.51696231 0 0 0 0-51.89382247z m0 0"  horiz-adv-x="1024" />

    
    <glyph glyph-name="dianzidangan" unicode="&#42534;" d="M926.272 729.216v-759.488h-689.6A138.88 138.88 0 0 0 97.728 108.67200000000003V659.328c0 76.8 62.08 138.944 138.944 138.944H788.16v-552.32H237.568a71.04 71.04 0 0 1-70.784-70.848v-65.536a71.04 71.04 0 0 1 70.784-70.784h619.648V729.216h69.12zM788.16 176.89599999999996H235.84v-69.12h552.32v69.12z"  horiz-adv-x="1024" />

    
    <glyph glyph-name="shipinjiankong" unicode="&#42533;" d="M915.12410281 462.05688281C914.81097781 685.05857344 735.03731563 864.24911156 511.8753125 863.9997375 288.65237188 863.75036344 108.50464813 683.84451375 108.87683469 461.56000875 109.31277125 238.18519312 288.77705938 57.87622031000001 510.94344031 57.75153280999996c224.40512531-0.24749906 404.412225 179.93772469 404.179725 404.30535zM511.25375188 227.27365499999996c-128.46440156 0.49687406-233.12291813 105.87163969-232.74979407 234.66041531C278.87708187 591.0940949999999 384.26590906 695.10011344 514.34655688 694.60323937c127.36096688-0.37218656 232.00260844-106.49320031 231.33511031-234.41197781-0.68437313-128.78783813-106.01038875-233.41541813-234.42791532-232.91854406z m-5.43655032 398.32411312c48.30551719-42.74990437 60.562365-77.622015 42.05990625-120.12160781-16.25996344-37.38272906-54.0664425-59.00893125-94.94885156-54.36362812-45.11989969 5.11592625-70.5598425 33.99367406-82.48669125 93.97479-31.45117969-40.86553406-38.57522625-126.61846781 11.67653625-187.85583094 52.63675781-64.24954406 140.50749937-81.0101325 211.75827938-40.89740906 70.43421844 39.76866187 102.05602312 124.89347156 74.74952062 201.25923937-24.49775813 68.26859813-100.75477594 118.86536062-162.80869969 108.00444657z m185.86271063-597.11117062c-5.42998781 7.12685906-9.99654 4.52061469-15.67777782 2.38687031-45.87364781-17.26308656-91.74635813-27.24556406-137.63688093-30.00649593V-95.99812499999996h314.69554968c-5.30436281 3.10686844-7.18873406 4.48873969-9.18091687 5.36811281-59.38580531 28.75118625-111.69350156 66.51078938-152.19997406 119.11567219z m-361.49356969-2.85468094c-34.18117406-43.7549025-77.05764094-77.24607844-125.63034562-103.64320687-10.0593525-5.49280031-20.182455-10.73435156-33.74055-17.98589719h314.67867468V0.8660343799999737c-45.55958625 2.76093094-91.1191725 12.74340937-136.61594625 29.88087093-8.50591875 3.13874344-13.01059594 2.00905781-18.69183281-5.11592625z"  horiz-adv-x="1024" />

    
    <glyph glyph-name="dianzhanshuliang" unicode="&#42532;" d="M941.056 431.616l-354.816 354.816c-19.456 19.456-46.592 29.184-75.776 29.184-29.184 0-56.32-12.288-73.216-31.744L84.48 434.176c-19.456-19.456-27.136-51.2-14.848-75.776 9.728-24.576 36.864-41.472 63.488-41.472h44.032v-257.024c0-58.88 46.592-104.96 104.96-104.96h457.216c56.32 0 104.96 46.592 107.52 104.96v257.024h44.032c29.184 0 53.76 16.896 60.928 38.912 13.312 24.576 8.704 56.32-10.752 75.776z m-348.16-99.84L443.904 143.36h-6.144c-2.048 0-2.048 2.048-2.048 4.096l54.272 144.896H429.568c-4.096 0-8.192 2.048-10.24 6.144-2.048 2.048-4.096 6.144-2.048 10.24L476.16 461.824c0 4.096 6.144 8.192 10.24 8.192h50.176c4.096 0 8.192-2.048 10.24-6.144 2.048-2.048 4.096-6.144 2.048-10.24l-37.888-100.864h71.168c4.096 0 8.192-2.048 12.8-8.192 2.048-4.096 2.048-8.192-2.048-12.8z"  horiz-adv-x="1024" />

    
    <glyph glyph-name="filter" unicode="&#42531;" d="M859.02 661.476l0.808 0.756 0.749 0.813c27.047 29.356 33.876 70.34 17.823 106.957-15.942 36.366-50.416 58.957-89.968 58.957H163.604c-38.83 0-73.043-22.012-89.29-57.444-16.361-35.683-10.632-76.301 14.949-106.004l0.97-1.126 280.311-266.85 2.032-312.074c0.107-16.502 13.517-29.805 29.995-29.805l0.2 0.001c16.568 0.107 29.912 13.626 29.804 30.194l-2.198 337.564-296.478 282.241c-9.526 11.758-11.426 26.933-5.044 40.851 6.446 14.059 19.437 22.452 34.75 22.452h624.828c15.6 0 28.69-8.616 35.017-23.047 6.31-14.391 3.924-29.831-6.354-41.497l-304.13-284.832 1.302-458.63c0.047-16.54 13.469-29.916 29.998-29.915h0.087c16.568 0.047 29.962 13.517 29.915 30.085L573.04 393.64l285.98 267.836zM657.265 300.71299999999997c0-16.498 13.499-29.997 29.997-29.997h243.897c16.498 0 29.997 13.498 29.997 29.997 0 16.498-13.499 29.997-29.997 29.997H687.262c-16.498 0-29.997-13.499-29.997-29.997zM931.159 161.83100000000002H687.262c-16.498 0-29.997-13.499-29.997-29.997s13.499-29.997 29.997-29.997h243.897c16.498 0 29.997 13.499 29.997 29.997 0 16.498-13.499 29.997-29.997 29.997zM931.159-7.0470000000000255H687.262c-16.498 0-29.997-13.499-29.997-29.997s13.499-29.997 29.997-29.997h243.897c16.498 0 29.997 13.499 29.997 29.997 0 16.498-13.499 29.997-29.997 29.997z"  horiz-adv-x="1024" />

    
    <glyph glyph-name="check-circle" unicode="&#42530;" d="M544.234145 749.821733c-202.342428 0-366.335433-163.993005-366.335433-366.335433 0-202.343451 163.993005-366.332363 366.335433-366.332363 202.366987 0 366.331339 163.988912 366.331339 366.332363C910.565485 585.828728 746.577596 749.821733 544.234145 749.821733L544.234145 749.821733zM475.964272 205.55893500000002L312.25984 369.263367l37.042661 37.042661L475.964272 279.64425700000004l263.221983 263.225053 37.042661-37.042661L475.964272 205.55893500000002 475.964272 205.55893500000002zM475.964272 205.55893500000002"  horiz-adv-x="1024" />

    
    <glyph glyph-name="warning" unicode="&#42529;" d="M1016.992 40.591999999999985l0.288 0.176-464 752-0.288-0.16A47.76 47.76 0 0 1 512 816a47.888 47.888 0 0 1-40.144-21.792l-0.272 0.16-464-752 0.272-0.16A47.792 47.792 0 0 1 0 16a48 48 0 0 1 48-48l0.432 0.048v-0.48h928v0.48A47.968 47.968 0 0 1 1024 16c0 9.024-2.64 17.376-7.008 24.592zM512 64a64 64 0 1 0 0 128 64 64 0 0 0 0-128z m64 240a64 64 0 0 0-128 0V544a64 64 0 0 0 128 0v-240z"  horiz-adv-x="1024" />

    
    <glyph glyph-name="hand-left" unicode="&#42528;" d="M601.24 680.64c-33.4 48.8-28.1 108.4 12 145.8 32.8 30.8 105 37.5 144.5-2.7 40.1-40.8 84.9-74.2 127.7-111 91-78.3 194.6-135.8 310.3-168.5 29.4-8.7 46.8-24.7 46.2-59.5-1.3-119.7-2.7-240.1 0.7-359.8 2.7-72.9-32.8-97-96.3-121.7-81.6-31.4-163.9-62.2-250.1-74.2-83.6-11.4-168.5-7.4-252.2-10-42.8-1.3-91.6-6-129.8 17.4-38.8 23.4-53.5 69.6-49.5 112.4 2 20.1 2.7 38.1-16.1 54.2-36.1 29.4-46.2 70.2-42.1 115 1.3 16.1 8.7 34.1-6 46.8-33.4 28.1-40.1 64.9-35.4 105.7 3.3 26.1-7.4 34.1-33.4 33.4-54.8-2-98.3-2.7-143.1-1.3-84.3 2-117.7 49.5-117 100.3 0 54.2 37.5 104.3 138.5 104.3 143.8 0 244.1-1.3 387.3-1.3 16.1 0 31.4 0 53.5 0C630.64 635.8399999999999 615.94 657.84 601.24 680.64zM181.84 544.8399999999999c-27.4 0-50.2-9.4-50.2-39.5 0-33.4 20.1-41.5 51.5-40.8 126.4 2 253.5 0.7 379.9 0.7 22.1 0 42.1 3.3 42.1-31.4-0.7-36.8-23.4-29.4-43.5-30.8-26.8-1.3-66.9 0-108.4-2.7-29.4-2-26.8-33.4-26.1-49.5 0.7-14.7 14.7-46.2 53.5-46.8 36.1-1.3 72.9 0 109.7 0.7 21.4 0.7 37.5 1.3 36.8-30.1-0.7-18.7-4.7-32.8-25.4-32.8-46.8 0-119.7 16.7-121.1-49.5-0.7-40.1 16.7-52.2 54.2-48.2 23.4 2.7 46.8 0.7 70.2 0.7 20.1 0 41.5 7.4 42.1-29.4 0.7-40.1-22.7-31.4-44.8-32.8-34.8-2.7-86.3-5.4-72.2-58.2 16.1-61.5 109.7-41.5 155.8-41.5 67.6 0 135.1 1.3 202 9.4 86.9 10.7 170.6 46.2 251.5 77.6 14 5.4 28.8 19.4 28.1 44.8-2.7 111.7-5.4 223.4 0.7 335.1 2 42.8-32.1 44.1-46.8 48.8-159.2 49.5-276.9 159.2-398 264.2-17.4 14.7-37.5 40.1-64.9 10-24.1-26.8-14-46.8 6-71.6 32.8-40.1 68.2-78.3 117.7-94.3 25.4-8.7 23.4-22.1 24.1-40.1 0.7-26.8-19.4-22.7-34.8-22.7-100.3 0-200 0-300.3 0C374.54 543.54 277.54 546.14 181.84 544.8399999999999z"  horiz-adv-x="1362" />

    
    <glyph glyph-name="arrow1" unicode="&#42527;" d="M857.766234 384.511489L345.623017 896 297.174825 846.651588 759.846873 384.511489 297.174825-78.65158799999995 345.623017-126.97702300000003z"  horiz-adv-x="1024" />

    
    <glyph glyph-name="map" unicode="&#42526;" d="M832-128H192c-106.048 0-192 86.016-192 192V704a192 192 0 0 0 192 192h35.712a380.949333 380.949333 0 0 1-82.88-149.632C134.656 735.04 128 720.384 128 704v-640c0-35.392 28.608-64 64-64h640c35.392 0 64 28.608 64 64V704c0 16.384-6.656 31.04-16.832 42.368A381.610667 381.610667 0 0 1 796.352 896H832a192 192 0 0 0 192-192v-640c0-105.984-85.952-192-192-192zM256 640c0 141.376 114.624 256 256 256s256-114.624 256-256-256-512-256-512-256 370.624-256 512z m384 0c0 70.656-57.344 128-128 128s-128-57.344-128-128 57.344-128 128-128 128 57.344 128 128z"  horiz-adv-x="1024" />

    
    <glyph glyph-name="play" unicode="&#42525;" d="M900.571429 366.29942900000003l-758.857143-421.741714q-13.165714-7.460571-22.601143-1.682286t-9.435429 20.553143l0 841.142857q0 14.848 9.435429 20.553143t22.601143-1.682286l758.857143-421.741714q13.165714-7.460571 13.165714-17.700571t-13.165714-17.700571z"  horiz-adv-x="1024" />

    
    <glyph glyph-name="pailie" unicode="&#42523;" d="M897.939 824.338L605.268 824.338c-33.502 0-55.542-27.33-55.542-55.537l0-291.796c0-27.326 22.04-55.537 55.542-55.537l291.791 0c33.502 0 55.537 27.331 55.537 55.537L952.596 769.682C952.596 797.012 930.561 824.338 897.939 824.338zM905.552 488.233c0-7.372-5.733-18.835-18.838-18.835L615.612 469.398c-12.286 0-18.838 10.643-18.838 18.835L596.774 759.337c0 7.369 5.733 18.837 18.838 18.837l271.92-0.818c12.286 0 18.02-10.65 18.02-18.019L905.552 488.233zM897.939 824.338M897.939 344.773L605.268 344.773c-33.502 0-55.542-27.328-55.542-55.537l0-291.794c0-27.331 22.04-55.54 55.542-55.54l291.791 0c33.502 0 55.537 27.33 55.537 55.54L952.596 290.11400000000003C952.596 317.44500000000005 930.561 344.773 897.939 344.773zM905.552 8.668000000000006c0-7.371-5.731-18.838-18.84-18.838L615.614-10.169999999999959c-12.288 0-18.84 10.651-18.84 18.838L596.774 279.77c0 7.371 5.731 18.838 18.84 18.838l271.918 0 0-0.816c12.288 0 18.02-10.65 18.02-18.021L905.552 8.668000000000006zM420.438 825.549L127.766 825.549c-33.501 0-55.542-27.331-55.542-55.538l0-291.796c0-27.326 22.041-55.537 55.542-55.537l291.792 0c33.501 0 55.538 27.331 55.538 55.537L475.096 770.892C475.095 798.223 453.059 825.549 420.438 825.549zM428.05 489.443c0-7.372-5.733-18.835-18.837-18.835L138.11 470.608c-12.286 0-18.837 10.643-18.837 18.835L119.273 760.547c0 7.369 5.733 18.837 18.837 18.837l271.92-0.818c12.286 0 18.019-10.65 18.019-18.019L428.049 489.443zM420.438 345.98299999999995L127.766 345.98299999999995c-33.501 0-55.542-27.328-55.542-55.537l0-291.794c0-27.33 22.041-55.539 55.542-55.539l291.792 0c33.501 0 55.538 27.33 55.538 55.539L475.096 291.32500000000005C475.095 318.655 453.059 345.98299999999995 420.438 345.98299999999995zM428.05 9.878000000000043c0-7.37-5.731-18.837-18.84-18.837L138.113-8.958999999999946c-12.288 0-18.84 10.65-18.84 18.837L119.273 280.98c0 7.37 5.731 18.837 18.84 18.837l271.918 0 0-0.816c12.288 0 18.019-10.65 18.019-18.021L428.05 9.878000000000043zM897.939 344.773"  horiz-adv-x="1024" />

    
    <glyph glyph-name="list" unicode="&#42524;" d="M288 736h640v-96H288zM288 432h640v-96H288zM288 128h640v-96H288zM160 688m-64 0a64 64 0 1 1 128 0 64 64 0 1 1-128 0ZM160 384m-64 0a64 64 0 1 1 128 0 64 64 0 1 1-128 0ZM160 80m-64 0a64 64 0 1 1 128 0 64 64 0 1 1-128 0Z"  horiz-adv-x="1024" />

    
    <glyph glyph-name="camera" unicode="&#42522;" d="M867.947 26.54499999999996h-704.352c-55.302 0-100.046 44.745-100.046 100.046v431.358c0 55.302 44.745 100.046 100.046 100.046h100.55v41.226c0 24.132 19.607 44.24 44.24 44.24h414.768c24.132 0 44.24-19.607 44.24-44.24v-41.226h100.55c55.302 0 100.046-44.745 100.046-100.046v-431.358c0-54.799-44.745-100.046-100.046-100.046zM163.596 608.73c-27.651 0-50.275-22.624-50.275-50.275v-431.358c0-27.651 22.624-50.275 50.275-50.275h704.352c27.651 0 50.275 22.624 50.275 50.275v431.358c0 27.651-22.624 50.275-50.275 50.275h-150.322v85.467h-403.708v-85.467h-150.322zM508.982 124.07799999999997c-116.637 0-211.153 95.021-211.153 211.153s95.021 211.153 211.153 211.153c116.637 0 211.153-95.021 211.153-211.153s-94.516-211.153-211.153-211.153zM508.982 496.617c-88.987 0-161.383-72.396-161.383-161.383s72.396-161.383 161.383-161.383 161.383 72.396 161.383 161.383-72.396 161.383-161.383 161.383zM811.135 472.987h-50.275c-19.607 0-35.696 16.09-35.696 35.696v21.115c0 19.607 16.09 35.696 35.696 35.696h50.275c19.607 0 35.696-16.09 35.696-35.696v-20.613c0-20.11-16.09-36.197-35.696-36.197z"  horiz-adv-x="1024" />

    
    <glyph glyph-name="edit" unicode="&#42521;" d="M320.426667 186.83733299999994l179.584 66.304L941.184 749.312c20.096 23.381333 17.450667 58.581333-5.930667 78.677333l-63.445333 54.570667C861.269333 891.562667 848.341333 896 835.456 896c-15.701333 0-31.274667-6.570667-42.325333-19.413333L351.914667 380.458667 320.426667 186.83733299999994 320.426667 186.83733299999994zM404.394667 355.49866699999995L835.370667 840.192l0.042667 0 64.085333-53.845333L467.541333 300.672 390.826667 272.298667 404.394667 355.49866699999995 404.394667 355.49866699999995zM902.485333 541.44l0-557.866667c0-30.762667-25.002667-55.808-55.765333-55.808L177.28-72.23466699999994c-30.762667 0-55.808 25.002667-55.808 55.808L121.472 653.013333c0 30.762667 25.002667 55.808 55.808 55.808l306.816 0L484.096 764.586667 177.28 764.586667c-61.610667 0-111.573333-49.962667-111.573333-111.573333l0-669.44C65.706667-78.03733299999999 115.669333-128 177.28-128l669.44 0c61.610667 0 111.573333 49.962667 111.573333 111.573333L958.293333 541.44 902.485333 541.44 902.485333 541.44zM902.485333 541.44"  horiz-adv-x="1024" />

    
    <glyph glyph-name="loading" unicode="&#42520;" d="M923.072 319.10400000000004c-17.28 4.096-34.368-6.592-38.528-23.744C843.456 121.47199999999998 689.92 0 511.296 0c-107.84 0-206.016 44.8-276.288 118.208-8.768 9.024-16.32 18.688-24 28.352-6.144 7.744-12.416 15.232-17.92 23.488-5.056 7.424-9.152 15.296-13.568 22.976-6.656 11.584-13.248 23.104-18.752 35.456-2.304 5.248-3.968 10.624-6.016 15.936C148.8 259.648 143.36 275.13599999999997 139.264 291.39200000000005c-16.064 64.576-14.72 132.352 3.968 197.504C147.328 503.04 151.488 517.12 156.992 530.496c6.08 14.656 13.632 28.736 21.632 42.816C245.312 691.264 369.92 768 511.296 768c178.688 0 332.16-121.472 373.312-295.36C888.064 457.856 901.184 448 915.712 448c2.496 0 4.864 0.256 7.36 0.896 17.28 4.032 27.904 21.312 23.744 38.528C898.816 690.24 719.68 832 511.296 832 352.192 832 210.688 749.056 130.944 619.712 130.752 619.392 130.432 619.2 130.24 618.88 127.168 613.952 125.312 608.576 122.496 603.5840000000001 113.6 587.8399999999999 104.896 572.0319999999999 97.984 555.072c-6.72-16.128-11.456-32.64-16.192-49.216C80 499.648 77.248 493.824 75.712 487.36 75.584 486.912 75.776 486.528 75.648 486.08 59.776 419.2 60.48 350.4 75.584 284.22400000000005c0.128-1.28-0.128-2.368 0.128-3.648 0.384-1.6 1.152-3.136 1.536-4.736 4.608-18.624 10.88-36.672 17.92-54.656 2.368-6.208 4.352-12.544 7.104-18.624 6.272-14.272 14.016-27.904 21.888-41.408 5.12-9.088 9.984-18.176 15.68-26.752 6.528-9.536 13.952-18.56 21.184-27.776 8.896-11.264 17.728-22.4 27.648-32.704 2.048-2.176 3.648-4.672 5.76-6.784l0.768 0.768C276.864-13.951999999999998 388.608-64 511.296-64c208.384 0 387.52 141.76 435.52 344.64C950.912 297.79200000000003 940.288 315.072 923.072 319.10400000000004z"  horiz-adv-x="1024" />

    
    <glyph glyph-name="shuju11" unicode="&#42518;" d="M207.243 56.65899999999999c0-41.946-34.012-75.95-75.949-75.95-41.956 0-75.959 34.004-75.959 75.95V711.74c0 41.946 34.003 75.949 75.959 75.949 41.937 0 75.949-34.003 75.949-75.949v-655.081zM460.851 56.65899999999999c0-41.946-34.003-75.95-75.949-75.95-41.957 0-75.959 34.004-75.959 75.95V406.9c0 41.956 34.003 75.959 75.959 75.959 41.946 0 75.949-34.003 75.949-75.959v-350.241zM714.459 56.65899999999999c0-41.946-34.004-75.95-75.949-75.95-41.955 0-75.959 34.004-75.959 75.95V593.902c0 41.946 34.004 75.949 75.959 75.949 41.945 0 75.949-34.002 75.949-75.949v-537.243zM968.067 56.65899999999999c0-41.946-34.004-75.95-75.949-75.95-41.947 0-75.959 34.004-75.959 75.95v414.29c0 41.936 34.012 75.938 75.959 75.938 41.945 0 75.949-34.003 75.949-75.938v-414.29z"  horiz-adv-x="1024" />

    
    <glyph glyph-name="energy-fenxiang" unicode="&#42519;" d="M884.736 395.776l-311.296-43.52L844.8 192c26.624 55.808 40.96 117.76 40.96 180.224 0 7.68 0 15.36-1.024 23.552z m-355.84 374.272l10.752-363.008 340.992 50.176C843.776 632.3199999999999 699.392 761.344 528.896 770.048zM481.28 351.23199999999997l-4.608 128.512-8.704 289.28c-192.512-20.48-341.504-192.512-341.504-398.336 0-220.672 170.496-400.384 379.392-400.384 122.368 0 237.056 62.464 308.224 167.424l-332.8 213.504z"  horiz-adv-x="1024" />

    
    <glyph glyph-name="arrowdown" unicode="&#42516;" d="M504.5248-94.9248l307.2 307.2c9.984 9.984 9.984 26.2144 0 36.1984s-26.2144 9.984-36.1984 0l-263.4752-263.4752 0 834.2016c0 14.1312-11.4688 25.6-25.6 25.6s-25.6-11.4688-25.6-25.6l0-834.2016-263.4752 263.4752c-9.984 9.984-26.2144 9.984-36.1984 0-5.0176-5.0176-7.4752-11.5712-7.4752-18.1248s2.5088-13.1072 7.4752-18.1248l307.2-307.2c9.984-9.984 26.2144-9.984 36.1984 0z"  horiz-adv-x="1024" />

    
    <glyph glyph-name="arrow-up" unicode="&#42517;" d="M468.2752 862.9248l-307.2-307.2a25.6 25.6 0 0 1 36.1984-36.1984l263.4752 263.4752V-51.200000000000045a25.6 25.6 0 0 1 51.2 0V783.0016l263.4752-263.4752a25.6 25.6 0 0 1 36.1984 36.2496l-307.2 307.2a25.6 25.6 0 0 1-36.1984 0z"  horiz-adv-x="1024" />

    
    <glyph glyph-name="shuju2" unicode="&#42514;" d="M41.037-63.972999999999956V821.925h53.037v-832.856h885.918v-53.042zM194.881 302.05999999999995h113.172v-261.708H194.881zM392.931 386.937h113.171v-346.586H392.931zM590.979 563.761h113.173v-523.41H590.979zM789.029 691.076h113.173V40.35000000000002H789.029z"  horiz-adv-x="1024" />

    
    <glyph glyph-name="zhihuiyongdian" unicode="&#42515;" d="M63.358 274.95799999999997c0 21.686-0.416 40.604 0.35 59.479 0.154 3.796 3.942 8.516 7.496 10.98 66.865 46.351 133.925 92.452 200.998 138.539 17.505 12.028 32.147 9.836 46.104-7.724 28.26-35.556 56.088-71.415 84.036-107.188 27.047-34.62 54.175-69.188 80.898-104.027 5.205-6.786 9.285-6.263 15.741-1.781 72.968 50.644 146.052 101.14 219.178 151.582 40.557 27.976 81.259 55.766 121.872 83.672 2.999 2.06 5.8 4.373 11.108 8.402-18.874 1.253-34.888 2.238-50.887 3.399-17.59 1.276-27.975 12.274-27.098 28.477 0.732 13.527 11.016 23.69 25.942 23.472 27.043-0.395 54.078-1.669 81.098-2.927 17.11-0.797 34.183-2.285 51.279-3.363 23.779-1.499 35.262-16.359 27.466-37.694-14.217-38.904-29.189-77.57-44.314-116.174-5.874-14.993-20.89-21.648-35.711-17.044-14.259 4.429-21.891 17.688-17.92 32.844 2.173 8.292 6.002 16.197 8.956 24.317 1.178 3.239 2.008 6.589 3.96 13.103-11.926-7.934-21.162-13.895-30.195-20.117-113.125-77.925-226.217-155.89-339.328-233.83-17.962-12.377-31.776-11.247-45.247 5.658-37.204 46.688-73.754 93.835-110.546 140.811-17.83 22.765-35.629 45.55-53.43 68.335-9.057 11.593-9.03 11.583-21.081 3.265A465104.9 465104.9 0 0 0 74.997 282.067c-2.96-2.04-6.157-3.775-11.639-7.109zM960.791 396.67c0-22.811 0.003-45.622-0.001-68.433-0.022-125.823-0.041-251.647-0.073-377.47-0.004-15.017-0.04-15.048-14.722-15.063-33.863-0.036-67.728 0.182-101.587-0.201-9.076-0.103-12.05 3.058-12.035 12.124 0.216 132.795 0.101 265.59 0.362 398.385 0.009 4.391 2.233 9.495 5.017 13.002 4.61 5.808 9.084 5.533 13.966-1.4 13.601-19.317 33.12-26.453 55.852-22.251 21.334 3.944 34.977 17.85 42.104 38.217 2.729 7.799 5.514 15.577 8.274 23.365 0.948-0.093 1.896-0.184 2.843-0.275zM251.363 140.606c0.014 63.737 0.003 127.475 0.026 191.212 0.003 9.062 17.435 28.55 26.286 28.542 2.439-0.002 5.434-3.193 7.229-5.619 28.035-37.874 54.87-76.698 84.27-113.473 14.803-18.517 19.103-37.372 18.785-60.281-1.07-77.001-0.389-154.026-0.418-231.042-0.005-14.154-0.093-14.227-14.54-14.243-36.184-0.04-72.368-0.036-108.553 0.012-12.806 0.017-13.101 0.414-13.101 13.68 0.003 63.738 0.002 127.475 0.016 191.212z m521.064 190.062c0-15.494 0.002-28.708 0-41.921-0.022-112.549-0.04-225.097-0.071-337.646-0.004-15.366-0.034-15.392-15.385-15.4-35.856-0.017-71.712-0.044-107.568 0.014-12.935 0.021-13.261 0.335-13.263 13.57-0.018 91.301-0.081 182.602 0.317 273.901 0.021 4.861 2.735 11.499 6.458 14.279 40.161 29.983 80.769 59.368 121.291 88.865 1.76 1.282 3.878 2.071 8.221 4.338z m-581.77-13.584c0.341-3.823 0.811-6.637 0.812-9.451 0.04-119.206 0.051-238.413 0.023-357.619-0.003-14.26-0.112-14.348-14.528-14.363-33.537-0.034-67.074-0.001-100.611 0.062-12.639 0.024-13.139 0.535-13.14 12.655-0.005 88.99-0.089 177.98 0.282 266.968 0.02 4.887 2.484 11.61 6.149 14.35 38.284 28.624 77.041 56.613 115.695 84.741 1.244 0.905 2.781 1.407 5.318 2.657zM448.77 171.837c4.959-3.064 8.436-5.528 12.181-7.473 20.129-10.452 39.828-9.098 58.331 3.6 15.86 10.884 31.096 22.675 46.653 34.003 2.581 1.88 5.392 3.444 9.513 6.05 0.315-4.731 0.707-7.878 0.708-11.024 0.014-82.303 0.002-164.606-0.046-246.909-0.008-14.286-0.091-14.359-14.396-14.376-34.182-0.041-68.366 0.144-102.546-0.115-7.835-0.059-11.419 2.179-11.393 10.673 0.223 73.01 0.148 146.021 0.194 219.031 0.001 1.609 0.382 3.219 0.801 6.54zM529.951 596.812c-2.568 0.119-4.285 0.267-6.002 0.268-25.891 0.015-51.783 0.053-77.674-0.009-10.397-0.025-18.471 4.179-23.576 13.191-5.097 8.997-4.509 18.091 0.632 27.066 23.503 41.038 46.937 82.115 70.394 123.179 11.023 19.297 21.965 38.64 33.1 57.872 5.016 8.664 12.753 13.089 22.82 13.096 43.107 0.028 86.214-0.005 129.321 0.026 10.575 0.008 18.736-4.376 23.68-13.671 5-9.401 4.23-18.835-1.694-27.729-24.422-36.667-48.868-73.317-73.298-109.979-0.867-1.301-1.657-2.652-3.015-4.836h5.229c16.538 0 33.076 0.019 49.614-0.009 11.01-0.018 20.478-6.115 24.294-15.925 4.193-10.779 2.371-20.649-5.816-28.848-69.247-69.35-138.557-138.636-207.878-207.911-9.615-9.609-24.318-10.473-34.856-2.26-10.226 7.97-12.87 22.533-6.261 34.079 26.388 46.1 52.755 92.212 79.114 138.327 0.586 1.024 0.996 2.149 1.872 4.073z"  horiz-adv-x="1024" />

    
    <glyph glyph-name="subtract-circle-o" unicode="&#42512;" d="M512-128C229.238154-128 0 101.23815400000001 0 384S229.238154 896 512 896s512-229.238154 512-512-229.238154-512-512-512z m236.307692 551.384615H275.692308a39.384615 39.384615 0 1 1 0-78.76923h472.615384a39.384615 39.384615 0 0 1 0 78.76923z"  horiz-adv-x="1024" />

    
    <glyph glyph-name="add-circle-o" unicode="&#42513;" d="M512-128C229.230592-128 0 101.230592 0 384S229.230592 896 512 896s512-229.230592 512-512-229.230592-512-512-512z m-42.667008 554.667008H256c-23.564288 0-42.667008-19.10272-42.667008-42.667008s19.10272-42.667008 42.667008-42.667008h213.332992V128c0-23.564288 19.10272-42.667008 42.667008-42.667008s42.667008 19.10272 42.667008 42.667008V341.332992H768c23.564288 0 42.667008 19.10272 42.667008 42.667008S791.564288 426.667008 768 426.667008H554.667008V640c0 23.564288-19.10272 42.667008-42.667008 42.667008S469.332992 663.564288 469.332992 640v-213.332992z"  horiz-adv-x="1028" />

    
    <glyph glyph-name="guangfuban" unicode="&#42504;" d="M216.777 648.9159999999999l-26.549-113.783L216.777 501h246.527l32.237 30.341V648.9159999999999l-30.342 26.547h-208.6l-39.822-26.547z m-46.751-209.109l-31-141.681 31-39.86h287.871l37.643 35.432V439.807l-35.431 39.82h-243.58l-46.503-39.82z m642.965 209.109l20.67-113.783L807.11 501H560.585l-32.24 30.341V648.9159999999999l30.342 26.547h214.478l39.826-26.547z m40.87-209.109l31-141.681-31-39.86h-287.87l-37.646 35.432V439.807l35.432 39.82h243.58l46.504-39.82zM956.603 331.55499999999995l-75.41 318.13-0.423 1.503c-20.209 61.668-76.624 77.814-104.164 77.814-0.26 0-0.525-0.003-0.782-0.005h-521.32c-77.664 0-106.073-73.966-107.243-77.114l-0.582-1.854c-0.599-2.33-60.071-233.682-77.733-318.7-9.647-40.21-5.167-73.56 13.318-99.119 27.98-38.688 77.467-43.157 79.56-43.331l698.741-0.06 1.232 0.164c36.158 4.846 63.002 19.823 79.784 44.514 28.532 41.998 15.542 95.983 15.022 98.058z m-45.955-77.285c-10.414-15.212-28.111-24.692-52.609-28.197H164.335c-4.732 0.583-35.603 5.22-52.038 28.182-11.73 16.383-14.107 39.476-7.068 68.631l0.133 0.589c16.775 80.878 72.544 298.393 77.102 316.137 2.839 6.869 23.405 52.134 72.037 52.134h521.564c1.533 0 51.924-0.535 69.065-51.449l75.258-317.476c0.098-0.402 9.474-40.493-9.74-68.551zM548.052 101.05600000000004v61.729H475.99v-61.994l-142.683-29.219v-33.946h364.099v33.946l-149.354 29.484z"  horiz-adv-x="1024" />

    
    <glyph glyph-name="chaobiaoxunjian" unicode="&#42505;" d="M515.916 478.7830000000001a84.32199999999997 84.32199999999997 0 0 1-38.52199999999999-9.283999999999999l-95.68 93.033c-11.135 10.82-28.921 10.587-39.714-0.549-10.82-11.121-10.573-28.908 0.549-39.714l96.055-93.4a84.373 84.373 0 0 1-7.574-34.987c0-46.805 38.08299999999999-84.888 84.887-84.888s84.888 38.08299999999999 84.888 84.888c-0.0009999999999999998 46.818-38.083999999999996 84.901-84.889 84.901z m0-113.618c-15.84 0-28.716 12.876999999999997-28.716 28.717 0 7.505 2.915 14.326999999999998 7.643 19.45l0.01 0.01 0.046 0.05299999999999999c5.246 5.654 12.714 9.218 21.017 9.218 15.84 0 28.717-12.891 28.717-28.73 0-15.841-12.876999999999997-28.717999999999993-28.717-28.717999999999993zM509.716 833.2379999999998c-246.95399999999998 0-447.15-200.19499999999994-447.15-447.15s200.196-447.15 447.15-447.15c246.95399999999998 0 447.15 200.196 447.15 447.15S756.67 833.2379999999998 509.716 833.2379999999998z m0-838.1279999999998c-145.59 0-272.834 80-340.123 198.34l49.354 28.489999999999995c13.426 7.762 18.033 24.931 10.285 38.37-7.775999999999999 13.44-24.932 18.075-38.372 10.285l-45.514-26.272999999999996c-17.169 43.97399999999999-26.61 91.787-26.61 141.767 0 57.204999999999984 12.351 111.58 34.524 160.6l47.063-27.176999999999996a27.969999999999995 27.969999999999995 0 0 1 14.015-3.757c9.71 0 19.145 5.032 24.355 14.042 7.748 13.424999999999999 3.1549999999999994 30.61-10.285 38.371l-48.353 27.921999999999997c65.66099999999999 102.713 177.977 172.83599999999998 306.83 180.293v-55.8c0-15.508999999999997 12.573999999999998-28.084 28.084-28.084s28.085 12.575 28.085 28.085V775.63c124.023-10.525 231.73199999999997-79.17 295.682-178.542l-50.08299999999999-28.92c-13.44-7.762999999999999-18.034-24.945999999999998-10.285-38.372 5.211-9.01 14.647-14.042 24.355-14.042 4.759 0 9.6 1.207 14.015 3.757l48.931 28.255c22.483-49.3 35.024-104.051 35.024-161.678 0-50.27199999999999-9.544-98.354-26.902999999999995-142.54l-46.862 27.046c-13.466999999999999 7.789999999999999-30.637 3.1549999999999994-38.371-10.283999999999999-7.748-13.44-3.14-30.61 10.283999999999999-38.372l50.598-29.202C782.0470000000001 74.78800000000001 655.016-4.889999999999873 509.716-4.889999999999873z"  horiz-adv-x="1024" />

    
    <glyph glyph-name="lightningbshandian" unicode="&#42501;" d="M434.897971-66.21481800000004c-2.485611 0-4.357238 0.661056-5.599532 1.871627-8.714476 2.52552-11.821233 7.463995-9.335622 14.935154l57.877175 341.637937L225.804792 292.22990000000004c-6.220678 0-10.577916 2.492774-13.071713 7.471159-3.727904 4.938476-3.106758 10.538007 1.871627 16.799618L602.920756 824.297958c4.978385 7.471159 10.577916 8.674567 16.799618 3.736091 6.220678-1.242294 9.335622-6.260587 9.335622-14.935154l-57.877175-341.646124L793.34269 471.452771c6.220678 0 10.577916-2.52552 13.071713-7.463995 1.242294-4.978385 1.242294-10.577916 0-16.806781L447.969685-60.61528699999997C444.233594-64.34319100000005 439.876356-66.21481800000004 434.897971-66.21481800000004z"  horiz-adv-x="1024" />

    
    <glyph glyph-name="shuixi" unicode="&#42502;" d="M526.7 825.9c-8.2 8-21.3 8-29.5 0C437.5 768.1 217 481.5 217 248.60000000000002c0-162.9 132.1-312.5 295-312.5s295 132.1 295 295c0 250.4-220.6 536.8-280.3 594.8zM404.3 88.79999999999995c-5.1-3.2-10.8-4.8-16.4-4.8-10.2 0-20.1 5-26 14.3-23 36.3-37.2 77.6-41 119.3-2.5 28.2-2.6 57.2-0.3 86.2 1.4 16.9 16.2 29.5 33.1 28.1 16.9-1.4 29.5-16.2 28.1-33.1-2.1-25.6-2-51 0.3-75.7 2.9-32 13.9-63.8 31.7-91.9 9-14.4 4.8-33.3-9.5-42.4z"  horiz-adv-x="1024" />

    
    <glyph glyph-name="ranqi" unicode="&#42503;" d="M574.153-13.769999999999982c155.539 177.156-184.125 143.008-23.472 395.586-306.571-147.734-125.789-370.418-111.11-395.922-217.066 57.801-211.32 264.758-154.734 383.688 3.289 6.914 17.047 31.808 23.363 40.984 20.571 29.918 105.067 120.328 89.7 208.992 0 0 54.542-70.851 32.675-181.703 96.262 107.153 114.489 277.965 99.887 343.403 217.328-151.899 389.27-672.032 43.691-795.028z m0 0"  horiz-adv-x="1024" />

    
    <glyph glyph-name="sanjiaoxing" unicode="&#42500;" d="M535.466667 83.20000000000005l450.133333 563.2c14.933333 19.2 2.133333 49.066667-23.466667 49.066667H61.866667c-25.6 0-38.4-29.866667-23.466667-49.066667l450.133333-563.2c12.8-14.933333 34.133333-14.933333 46.933334 0z"  horiz-adv-x="1024" />

    
    <glyph glyph-name="arrow" unicode="&#42498;" d="M948.560332 614.820016c-13.765515 13.833053-36.127825 13.833053-49.89334 0L511.991302 227.40856900000006 125.313565 614.820016c-13.763468 13.798261-36.093033 13.798261-49.856501 0-13.799284-13.798261-13.799284-36.161594 0-49.993624l410.857439-411.674037c7.067976-7.085372 16.402575-10.521634 25.675776-10.331299 9.274224-0.191358 18.608823 3.245927 25.677822 10.331299l410.891208 411.708829c6.863315 6.89913 10.331299 15.940041 10.331299 24.979928S955.423647 607.921909 948.560332 614.820016z"  horiz-adv-x="1024" />

    
    <glyph glyph-name="arrow-top" unicode="&#42499;" d="M527.06716 636.4639649999999l-0.015349 0.008187a31.67542 31.67542 0 0 1-2.706645 1.319042l-0.112564 0.051165c-0.429789 0.183172-0.865717 0.354064-1.305738 0.519839-0.053212 0.019443-0.104377 0.042979-0.15759 0.062422a31.360242 31.360242 0 0 1-1.268899 0.432859c-0.076748 0.024559-0.152473 0.053212-0.230244 0.077771-0.413416 0.128937-0.831948 0.245593-1.252527 0.35918-0.092098 0.024559-0.183172 0.054235-0.275269 0.077772a31.247678 31.247678 0 0 1-1.205455 0.280386c-0.118704 0.025583-0.23536 0.057305-0.354064 0.081864-0.381693 0.078795-0.769526 0.143263-1.156336 0.207731-0.143263 0.024559-0.285502 0.054235-0.428765 0.076748-0.3776 0.058328-0.759293 0.101307-1.140987 0.146333-0.156566 0.01842-0.311085 0.042979-0.467651 0.059352a32.647561 32.647561 0 0 1-1.192151 0.091074c-0.147356 0.00921-0.292666 0.025583-0.440022 0.033769a32.772404 32.772404 0 0 1-3.305279 0c-0.147356-0.007163-0.292666-0.023536-0.440022-0.033769-0.399089-0.025583-0.797156-0.051165-1.192151-0.091074-0.157589-0.016373-0.311085-0.040932-0.467651-0.059352-0.381693-0.045025-0.763386-0.088004-1.140987-0.146333-0.144286-0.022513-0.285502-0.052189-0.428765-0.076748-0.38681-0.064468-0.773619-0.12996-1.156336-0.207731-0.118704-0.024559-0.23536-0.056282-0.354064-0.081864-0.404206-0.088004-0.807389-0.178055-1.205455-0.280386-0.093121-0.023536-0.183172-0.053212-0.275269-0.077772-0.420579-0.112564-0.839111-0.229221-1.252527-0.35918-0.077771-0.024559-0.152473-0.053212-0.230244-0.077771-0.426719-0.137123-0.850367-0.278339-1.268899-0.432859-0.053212-0.019443-0.104377-0.041956-0.15759-0.062422a30.668487 30.668487 0 0 1-1.305738-0.519839l-0.112564-0.051165a31.843242 31.843242 0 0 1-1.370207-0.62831c-0.451278-0.220011-0.89744-0.450255-1.336438-0.690732l-0.015349-0.008187a32.075533 32.075533 0 0 1-7.384178-5.578042l-0.022513 0.022513-351.620289-383.934252c-5.791913-5.78782-9.374508-13.785981-9.374508-22.621207 0-17.662265 14.3181-31.980365 31.980365-31.980366 8.834202 0 16.832364 3.582595 22.620184 9.373485l329.170998 359.807762 329.155648-359.807762c5.78782-5.79089 13.784958-9.373485 22.620184-9.373485 17.662265 0 31.980365 14.3181 31.980365 31.980366 0 8.835226-3.582595 16.833387-9.374508 22.621207l-351.62029 383.934252-0.022512-0.022513a32.106232 32.106232 0 0 1-7.383155 5.578042z"  horiz-adv-x="1024" />

    
    <glyph glyph-name="iconfontcheckboxline" unicode="&#42497;" d="M837.288828-53.498711999999955L185.250844-53.498711999999955C124.29571-53.498711999999955 74.704936-3.909985000000006 74.704936 57.043102999999974L74.704936 709.081087C74.704936 770.036221 124.29571 819.626995 185.250844 819.626995L837.288828 819.626995c60.954111 0 110.542838-49.590774 110.542838-110.545908L947.831666 57.043102999999974C947.830643-3.909985000000006 898.241916-53.498711999999955 837.288828-53.498711999999955zM185.250844 784.832915c-41.769269 0-75.751828-33.982559-75.751828-75.751828L109.499016 57.043102999999974c0-41.767223 33.982559-75.748758 75.751828-75.748758L837.288828-18.70565499999998c41.767223 0 75.748758 33.980512 75.748758 75.748758L913.037586 709.081087c0 41.769269-33.980512 75.751828-75.748758 75.751828L185.250844 784.832915z"  horiz-adv-x="1024" />

    
    <glyph glyph-name="CombinedShape" unicode="&#42496;" d="M467.907765 256.96376499999997L282.503529 442.307765a45.176471 45.176471 0 1 1-63.849411-63.849412L435.862588 161.129412a45.056 45.056 0 0 1 63.849412 0l325.933176 325.872941a45.176471 45.176471 0 0 1-63.849411 63.969882l-293.948236-293.948235zM271.058824 850.823529h481.882352a240.941176 240.941176 0 0 0 240.941177-240.941176v-481.882353a240.941176 240.941176 0 0 0-240.941177-240.941176H271.058824a240.941176 240.941176 0 0 0-240.941177 240.941176v481.882353a240.941176 240.941176 0 0 0 240.941177 240.941176z"  horiz-adv-x="1024" />

    


  </font>
</defs>
</svg>
